HIERARCHY
ROOT Hips
{
	OFFSET 0.000000 0.000000 0.000000
	CHANNELS 6 Xposition Yposition Zposition Zrotation Yrotation Xrotation 
	JOINT LeftUpLeg_virtual
	{
		OFFSET 0.000000 0.000000 0.000000
		CHANNELS 3 Zrotation Yrotation Xrotation
		JOINT LeftUpLeg
		{
			OFFSET 10.205400 -3.823500 0.155100
			CHANNELS 3 Zrotation Yrotation Xrotation
			JOINT LeftLeg
			{
				OFFSET 0.708757 -12.982077 0.567790
				CHANNELS 3 Zrotation Yrotation Xrotation
				JOINT LeftFoot
				{
					OFFSET -0.708756 -10.717838 -2.184338
					CHANNELS 3 Zrotation Yrotation Xrotation
					JOINT LeftToeBase
					{
						OFFSET 0.108149 -7.191104 7.560241
						CHANNELS 3 Zrotation Yrotation Xrotation
						End Site
						{
							OFFSET 0.000000 0.000000 0.000000
						}
					}
				}
			}
		}
	}
	JOINT RightUpLeg_virtual
	{
		OFFSET 0.000000 0.000000 0.000000
		CHANNELS 3 Zrotation Yrotation Xrotation
		JOINT RightUpLeg
		{
			OFFSET -10.205400 -3.823500 0.005500
			CHANNELS 3 Zrotation Yrotation Xrotation
			JOINT RightLeg
			{
				OFFSET -0.708756 -12.982134 0.610632
				CHANNELS 3 Zrotation Yrotation Xrotation
				JOINT RightFoot
				{
					OFFSET 0.708754 -10.717769 -1.945823
					CHANNELS 3 Zrotation Yrotation Xrotation
					JOINT RightToeBase
					{
						OFFSET -0.108140 -7.191069 7.372968
						CHANNELS 3 Zrotation Yrotation Xrotation
						End Site
						{
							OFFSET 0.000000 0.000000 0.000000
						}
					}
				}
			}
		}
	}
	JOINT Spine_virtual
	{
		OFFSET 0.000000 0.000000 0.000000
		CHANNELS 3 Zrotation Yrotation Xrotation
		JOINT Spine
		{
			OFFSET 0.000000 6.876099 0.125700
			CHANNELS 3 Zrotation Yrotation Xrotation
			JOINT Spine1
			{
				OFFSET 0.000000 8.022060 0.146608
				CHANNELS 3 Zrotation Yrotation Xrotation
				JOINT Spine2
				{
					OFFSET 0.000000 9.168068 0.167552
					CHANNELS 3 Zrotation Yrotation Xrotation
					JOINT Neck_virtual
					{
						OFFSET 0.000000 0.000000 0.000000
						CHANNELS 3 Zrotation Yrotation Xrotation
						JOINT Neck
						{
							OFFSET 0.000000 10.314075 0.188496
							CHANNELS 3 Zrotation Yrotation Xrotation
							JOINT Head
							{
								OFFSET 0.000000 7.643700 -2.377400
								CHANNELS 3 Zrotation Yrotation Xrotation
								End Site
								{
									OFFSET 0.000000 0.000000 0.000000
								}
							}
						}
					}
					JOINT LeftShoulder_virtual
					{
						OFFSET 0.000000 0.000000 0.000000
						CHANNELS 3 Zrotation Yrotation Xrotation
						JOINT LeftShoulder
						{
							OFFSET 4.392200 8.824978 0.174984
							CHANNELS 3 Zrotation Yrotation Xrotation
							JOINT LeftArm
							{
								OFFSET 8.771219 -2.981674 -0.026999
								CHANNELS 3 Zrotation Yrotation Xrotation
								JOINT LeftForeArm
								{
									OFFSET 8.512804 0.000000 -0.000000
									CHANNELS 3 Zrotation Yrotation Xrotation
									JOINT LeftHand
									{
										OFFSET 18.484802 0.000000 -0.000000
										CHANNELS 3 Zrotation Yrotation Xrotation
										End Site
										{
											OFFSET 0.000000 0.000000 0.000000
										}
									}
								}
							}
						}
					}
					JOINT RightShoulder_virtual
					{
						OFFSET 0.000000 0.000000 0.000000
						CHANNELS 3 Zrotation Yrotation Xrotation
						JOINT RightShoulder
						{
							OFFSET -4.392200 8.824993 0.141379
							CHANNELS 3 Zrotation Yrotation Xrotation
							JOINT RightArm
							{
								OFFSET -8.771282 -2.981682 -0.094208
								CHANNELS 3 Zrotation Yrotation Xrotation
								JOINT RightForeArm
								{
									OFFSET -8.494598 0.000000 0.000000
									CHANNELS 3 Zrotation Yrotation Xrotation
									JOINT RightHand
									{
										OFFSET -18.483803 0.000000 0.000001
										CHANNELS 3 Zrotation Yrotation Xrotation
										End Site
										{
											OFFSET 0.000000 0.000000 0.000000
										}
									}
								}
							}
						}
					}
				}
			}
		}
	}
}
MOTION
Frames: 5
Frame Time: 0.033333
10.517841 34.078018 -16.532789 -179.879616 -0.176402 -179.997136 -2.237631 -0.911907 7.979941 -14.784991 -1.201014 -22.138404 14.447114 3.654498 40.130018 -2.356145 -8.473465 5.975210 0.000000 0.000000 0.000000 0.828060 1.009881 6.307140 15.582800 9.269289 -5.288200 -7.696324 -0.826899 20.095371 0.820538 0.810458 -0.635013 0.000000 0.000000 0.000000 -0.998678 2.565882 -9.135399 2.722217 -1.250583 -12.224647 0.156511 -2.980188 10.025535 -0.032276 -0.022250 -0.007450 -0.079199 -0.587725 12.574667 -2.202204 -0.597409 28.552612 0.000000 0.000000 0.000000 1.633163 -0.252403 9.531788 3.054085 -9.617641 1.333807 -59.610934 -1.182280 1.279792 173.915509 -86.355086 -160.458246 0.000000 0.000000 0.000000 -2.464350 1.175546 9.056194 15.601895 14.823411 1.370836 36.428093 -48.878265 35.252013 -70.291526 84.929584 -71.055783 0.000000 0.000000 0.000000 
10.359294 34.089840 -16.450937 -179.822365 0.479073 179.942153 -2.486862 -0.923057 8.043881 -14.784718 -1.269753 -22.988364 14.662341 3.813307 41.271206 -2.043622 -8.028645 5.857540 0.000000 0.000000 0.000000 0.623049 1.277283 6.110982 15.493879 10.922121 -5.141514 -7.598862 -0.831302 19.985285 0.482759 0.659104 -0.093849 0.000000 0.000000 0.000000 -1.105662 2.981347 -9.224115 2.884583 -1.438191 -12.266224 0.469792 -3.151807 9.939393 -0.032717 -0.136855 -0.009741 0.100697 -0.611502 12.551073 -2.369972 -0.261410 28.378927 0.000000 0.000000 0.000000 1.805448 -0.415641 9.467237 3.020557 -9.169638 1.447658 -57.649214 0.099596 0.123948 176.988110 -86.149285 -163.414434 0.000000 0.000000 0.000000 -2.274390 1.154347 8.952307 14.773962 13.915789 0.936284 37.396727 -49.001246 32.569385 -63.742317 84.765086 -64.755193 0.000000 0.000000 0.000000 
10.186836 34.119751 -16.300364 -179.740171 1.134880 179.948396 -2.657994 -1.024693 7.910901 -14.657813 -1.014578 -24.351416 14.665261 3.775646 42.934436 -1.890352 -7.834373 6.692679 0.000000 0.000000 0.000000 0.408037 1.478153 5.683229 15.435949 11.908714 -4.753599 -7.459646 -0.538273 19.396728 0.261119 0.571550 0.624578 0.000000 0.000000 0.000000 -1.008292 2.764051 -9.431686 3.189168 -1.370259 -12.166542 0.654278 -3.091388 9.855544 -0.020643 -0.020035 -0.027640 0.241840 -0.621457 12.491288 -2.624151 -0.104770 27.989767 0.000000 0.000000 0.000000 1.973922 -0.347618 9.516660 2.993471 -8.932842 1.444811 -55.743663 1.273804 -0.890702 -175.919336 -85.962159 -170.389601 0.000000 0.000000 0.000000 -2.110992 1.043493 8.964791 13.799570 13.184684 0.457233 38.656928 -49.081575 29.702693 -59.278331 84.522204 -60.610224 0.000000 0.000000 0.000000 
10.007216 34.159412 -16.066566 -179.683822 1.439754 179.797777 -2.745068 -1.202614 7.362935 -14.303825 -1.107001 -26.337049 14.871700 3.698316 45.382987 -1.428421 -7.030675 9.047706 0.000000 0.000000 0.000000 0.157527 1.344338 5.111156 15.390093 12.009997 -4.295072 -7.249064 0.506606 18.642728 0.052926 0.489206 1.367328 0.000000 0.000000 0.000000 -0.946029 2.660601 -9.530266 3.534102 -1.333062 -11.823193 0.798016 -3.135072 9.701167 -0.029485 -0.023267 0.027960 0.310317 -0.607123 12.364104 -3.022447 0.168484 27.446026 0.000000 0.000000 0.000000 2.034900 -0.421719 9.445009 2.952953 -8.664615 1.607933 -53.812448 2.337903 -1.664642 -170.842552 -85.821907 -175.325806 0.000000 0.000000 0.000000 -2.064416 0.980915 8.821972 12.735805 12.311487 -0.047346 40.189782 -49.034037 26.640478 -56.065731 84.653645 -57.886161 0.000000 0.000000 0.000000 
9.837421 34.196377 -15.784135 -179.582148 1.675267 179.876980 -2.613928 -1.026193 6.295860 -13.769209 -1.487836 -29.094854 14.960380 3.399935 47.708544 -1.267822 -6.453468 11.141924 0.000000 0.000000 0.000000 0.005404 1.327930 4.481393 15.303413 12.513114 -4.002209 -7.112711 1.022047 18.025518 -0.163130 0.453566 2.033426 0.000000 0.000000 0.000000 -0.809916 2.817380 -9.757531 3.899484 -1.241225 -11.535119 0.846820 -3.174544 9.755568 -0.042798 -0.059891 -0.007053 0.366019 -0.640887 12.296396 -3.448748 0.413416 26.668749 0.000000 0.000000 0.000000 2.065466 -0.399166 9.485852 2.928805 -8.515204 1.912323 -52.032074 3.250234 -2.069438 -166.013936 -85.697482 -179.996221 0.000000 0.000000 0.000000 -1.977101 0.862911 8.801579 11.658205 11.520379 -0.442347 42.201393 -48.598237 23.422071 -58.366999 85.005229 -60.715286 0.000000 0.000000 0.000000 
